<svg width="125" height="49" viewBox="0 0 125 49" fill="none" xmlns="http://www.w3.org/2000/svg">
<path d="M17.1648 11.8693H12.9034C12.8466 11.4318 12.7301 11.0369 12.554 10.6847C12.3778 10.3324 12.1449 10.0312 11.8551 9.78125C11.5653 9.53125 11.2216 9.34091 10.8239 9.21023C10.4318 9.07386 9.99716 9.00568 9.51989 9.00568C8.6733 9.00568 7.94318 9.21307 7.32955 9.62784C6.72159 10.0426 6.25284 10.642 5.9233 11.4261C5.59943 12.2102 5.4375 13.1591 5.4375 14.2727C5.4375 15.4318 5.60227 16.4034 5.93182 17.1875C6.26705 17.9659 6.7358 18.554 7.33807 18.9517C7.94602 19.3437 8.66477 19.5398 9.49432 19.5398C9.96023 19.5398 10.3835 19.4801 10.7642 19.3608C11.1506 19.2415 11.4886 19.0682 11.7784 18.8409C12.0739 18.608 12.3153 18.3267 12.5028 17.9972C12.696 17.6619 12.8295 17.2841 12.9034 16.8636L17.1648 16.8892C17.0909 17.6619 16.8665 18.4233 16.4915 19.1733C16.1222 19.9233 15.6136 20.608 14.9659 21.2273C14.3182 21.8409 13.5284 22.3295 12.5966 22.6932C11.6705 23.0568 10.608 23.2386 9.40909 23.2386C7.82955 23.2386 6.41477 22.892 5.16477 22.1989C3.92045 21.5 2.9375 20.483 2.21591 19.1477C1.49432 17.8125 1.13352 16.1875 1.13352 14.2727C1.13352 12.3523 1.5 10.7244 2.23295 9.3892C2.96591 8.05398 3.95739 7.03977 5.20739 6.34659C6.45739 5.65341 7.85795 5.30682 9.40909 5.30682C10.4659 5.30682 11.4432 5.45455 12.3409 5.75C13.2386 6.03977 14.0284 6.46591 14.7102 7.02841C15.392 7.58523 15.946 8.26989 16.3722 9.08239C16.7983 9.89489 17.0625 10.8239 17.1648 11.8693ZM22.9091 23H18.375L24.2642 5.54545H29.8807L35.7699 23H31.2358L27.1364 9.94318H27L22.9091 23ZM22.304 16.1307H31.7812V19.3352H22.304V16.1307ZM37.6491 23V5.54545H44.8594C46.1662 5.54545 47.294 5.78125 48.2429 6.25284C49.1974 6.71875 49.9332 7.3892 50.4503 8.2642C50.9673 9.13352 51.2259 10.1648 51.2259 11.358C51.2259 12.5682 50.9616 13.5966 50.4332 14.4432C49.9048 15.2841 49.1548 15.9261 48.1832 16.3693C47.2116 16.8068 46.0611 17.0256 44.7315 17.0256H40.1719V13.7017H43.9474C44.5838 13.7017 45.1151 13.6193 45.5412 13.4545C45.973 13.2841 46.2997 13.0284 46.5213 12.6875C46.7429 12.3409 46.8537 11.8977 46.8537 11.358C46.8537 10.8182 46.7429 10.3722 46.5213 10.0199C46.2997 9.66193 45.973 9.39489 45.5412 9.21875C45.1094 9.03693 44.5781 8.94602 43.9474 8.94602H41.8679V23H37.6491ZM47.4759 15.0227L51.8224 23H47.2202L42.9588 15.0227H47.4759ZM57.7585 5.54545V23H53.5398V5.54545H57.7585ZM69.8416 10.7784C69.7848 10.1534 69.532 9.66761 69.0831 9.32102C68.6399 8.96875 68.0064 8.79261 67.1825 8.79261C66.6371 8.79261 66.1825 8.86364 65.8189 9.00568C65.4553 9.14773 65.1825 9.34375 65.0007 9.59375C64.8189 9.83807 64.7251 10.1193 64.7195 10.4375C64.7081 10.6989 64.7592 10.929 64.8729 11.1278C64.9922 11.3267 65.1626 11.5028 65.3842 11.6562C65.6115 11.804 65.8842 11.9347 66.2024 12.0483C66.5206 12.1619 66.8786 12.2614 67.2763 12.3466L68.7763 12.6875C69.6399 12.875 70.4013 13.125 71.0604 13.4375C71.7251 13.75 72.282 14.1222 72.7308 14.554C73.1854 14.9858 73.5291 15.483 73.7621 16.0455C73.995 16.608 74.1143 17.2386 74.12 17.9375C74.1143 19.0398 73.8359 19.9858 73.2848 20.7756C72.7337 21.5653 71.9411 22.1705 70.907 22.5909C69.8786 23.0114 68.6371 23.2216 67.1825 23.2216C65.7223 23.2216 64.4496 23.0028 63.3643 22.5653C62.2791 22.1278 61.4354 21.4631 60.8331 20.571C60.2308 19.679 59.9212 18.5511 59.9041 17.1875H63.9439C63.978 17.75 64.1286 18.2188 64.3956 18.5938C64.6626 18.9688 65.0291 19.2528 65.495 19.446C65.9666 19.6392 66.5121 19.7358 67.1314 19.7358C67.6996 19.7358 68.1825 19.6591 68.5803 19.5057C68.9837 19.3523 69.2933 19.1392 69.5092 18.8665C69.7251 18.5937 69.8359 18.2812 69.8416 17.929C69.8359 17.5994 69.7337 17.3182 69.5348 17.0852C69.3359 16.8466 69.0291 16.642 68.6143 16.4716C68.2053 16.2955 67.6825 16.1335 67.0462 15.9858L65.2223 15.5597C63.7109 15.2131 62.5206 14.6534 61.6513 13.8807C60.782 13.1023 60.3501 12.0511 60.3558 10.7273C60.3501 9.64773 60.6399 8.7017 61.2251 7.8892C61.8104 7.0767 62.62 6.44318 63.6541 5.98864C64.6882 5.53409 65.8672 5.30682 67.1911 5.30682C68.5433 5.30682 69.7166 5.53693 70.7109 5.99716C71.7109 6.4517 72.4865 7.09091 73.0376 7.91477C73.5888 8.73864 73.87 9.69318 73.8814 10.7784H69.8416ZM92.0945 11.8693H87.8331C87.7763 11.4318 87.6598 11.0369 87.4837 10.6847C87.3075 10.3324 87.0746 10.0312 86.7848 9.78125C86.495 9.53125 86.1513 9.34091 85.7536 9.21023C85.3615 9.07386 84.9268 9.00568 84.4496 9.00568C83.603 9.00568 82.8729 9.21307 82.2592 9.62784C81.6513 10.0426 81.1825 10.642 80.853 11.4261C80.5291 12.2102 80.3672 13.1591 80.3672 14.2727C80.3672 15.4318 80.532 16.4034 80.8615 17.1875C81.1967 17.9659 81.6655 18.554 82.2678 18.9517C82.8757 19.3437 83.5945 19.5398 84.424 19.5398C84.8899 19.5398 85.3132 19.4801 85.6939 19.3608C86.0803 19.2415 86.4183 19.0682 86.7081 18.8409C87.0036 18.608 87.245 18.3267 87.4325 17.9972C87.6257 17.6619 87.7592 17.2841 87.8331 16.8636L92.0945 16.8892C92.0206 17.6619 91.7962 18.4233 91.4212 19.1733C91.0518 19.9233 90.5433 20.608 89.8956 21.2273C89.2479 21.8409 88.4581 22.3295 87.5263 22.6932C86.6001 23.0568 85.5376 23.2386 84.3388 23.2386C82.7592 23.2386 81.3445 22.892 80.0945 22.1989C78.8501 21.5 77.8672 20.483 77.1456 19.1477C76.424 17.8125 76.0632 16.1875 76.0632 14.2727C76.0632 12.3523 76.4297 10.7244 77.1626 9.3892C77.8956 8.05398 78.8871 7.03977 80.1371 6.34659C81.3871 5.65341 82.7876 5.30682 84.3388 5.30682C85.3956 5.30682 86.3729 5.45455 87.2706 5.75C88.1683 6.03977 88.9581 6.46591 89.6399 7.02841C90.3217 7.58523 90.8757 8.26989 91.3018 9.08239C91.728 9.89489 91.9922 10.8239 92.0945 11.8693ZM97.8388 23H93.3047L99.1939 5.54545H104.81L110.7 23H106.165L102.066 9.94318H101.93L97.8388 23ZM97.2337 16.1307H106.711V19.3352H97.2337V16.1307Z" fill="white"/>
<path d="M11.2827 37V28.2727H14.6236C15.2543 28.2727 15.7784 28.3722 16.196 28.571C16.6165 28.767 16.9304 29.0355 17.1378 29.3764C17.348 29.7173 17.4531 30.1037 17.4531 30.5355C17.4531 30.8906 17.3849 31.1946 17.2486 31.4474C17.1122 31.6974 16.929 31.9006 16.6989 32.0568C16.4688 32.2131 16.2116 32.3253 15.9276 32.3935V32.4787C16.2372 32.4957 16.5341 32.5909 16.8182 32.7642C17.1051 32.9347 17.3395 33.1761 17.5213 33.4886C17.7031 33.8011 17.794 34.179 17.794 34.6222C17.794 35.0739 17.6847 35.4801 17.4659 35.8409C17.2472 36.1989 16.9176 36.4815 16.4773 36.6889C16.0369 36.8963 15.483 37 14.8153 37H11.2827ZM12.8636 35.679H14.5639C15.1378 35.679 15.5511 35.5696 15.804 35.3509C16.0597 35.1293 16.1875 34.8452 16.1875 34.4986C16.1875 34.2401 16.1236 34.0071 15.9957 33.7997C15.8679 33.5895 15.6861 33.4247 15.4503 33.3054C15.2145 33.1832 14.9332 33.1222 14.6065 33.1222H12.8636V35.679ZM12.8636 31.9844H14.4276C14.7003 31.9844 14.946 31.9347 15.1648 31.8352C15.3835 31.733 15.5554 31.5895 15.6804 31.4048C15.8082 31.2173 15.8722 30.9957 15.8722 30.7401C15.8722 30.402 15.7528 30.1236 15.5142 29.9048C15.2784 29.6861 14.9276 29.5767 14.4616 29.5767H12.8636V31.9844ZM23.2731 34.2472V30.4545H24.8157V37H23.32V35.8366H23.2518C23.104 36.2031 22.8612 36.5028 22.5231 36.7358C22.1879 36.9687 21.7745 37.0852 21.283 37.0852C20.854 37.0852 20.4748 36.9901 20.1452 36.7997C19.8185 36.6065 19.5629 36.3267 19.3782 35.9602C19.1935 35.5909 19.1012 35.1449 19.1012 34.6222V30.4545H20.6438V34.3835C20.6438 34.7983 20.7575 35.1278 20.9847 35.3722C21.212 35.6165 21.5103 35.7386 21.8796 35.7386C22.1069 35.7386 22.3271 35.6832 22.5401 35.5724C22.7532 35.4616 22.9279 35.2969 23.0643 35.0781C23.2035 34.8565 23.2731 34.5795 23.2731 34.2472ZM31.5753 32.1847L30.169 32.3381C30.1293 32.196 30.0597 32.0625 29.9602 31.9375C29.8636 31.8125 29.733 31.7116 29.5682 31.6349C29.4034 31.5582 29.2017 31.5199 28.9631 31.5199C28.642 31.5199 28.3722 31.5895 28.1534 31.7287C27.9375 31.8679 27.831 32.0483 27.8338 32.2699C27.831 32.4602 27.9006 32.6151 28.0426 32.7344C28.1875 32.8537 28.4261 32.9517 28.7585 33.0284L29.875 33.267C30.4943 33.4006 30.9545 33.6122 31.2557 33.902C31.5597 34.1918 31.7131 34.571 31.7159 35.0398C31.7131 35.4517 31.5923 35.8153 31.3537 36.1307C31.1179 36.4432 30.7898 36.6875 30.3693 36.8636C29.9489 37.0398 29.4659 37.1278 28.9205 37.1278C28.1193 37.1278 27.4744 36.9602 26.9858 36.625C26.4972 36.2869 26.206 35.8168 26.1122 35.2145L27.6165 35.0696C27.6847 35.3651 27.8295 35.5881 28.0511 35.7386C28.2727 35.8892 28.5611 35.9645 28.9162 35.9645C29.2827 35.9645 29.5767 35.8892 29.7983 35.7386C30.0227 35.5881 30.1349 35.402 30.1349 35.1804C30.1349 34.9929 30.0625 34.8381 29.9176 34.7159C29.7756 34.5937 29.554 34.5 29.2528 34.4347L28.1364 34.2003C27.5085 34.0696 27.044 33.8494 26.7429 33.5398C26.4418 33.2273 26.2926 32.8324 26.2955 32.3551C26.2926 31.9517 26.402 31.6023 26.6236 31.3068C26.848 31.0085 27.1591 30.7784 27.5568 30.6165C27.9574 30.4517 28.419 30.3693 28.9418 30.3693C29.7088 30.3693 30.3125 30.5327 30.7528 30.8594C31.196 31.1861 31.4702 31.6278 31.5753 32.1847ZM32.9879 37V30.4545H34.5305V37H32.9879ZM33.7635 29.5256C33.5192 29.5256 33.3089 29.4446 33.1328 29.2827C32.9567 29.1179 32.8686 28.9205 32.8686 28.6903C32.8686 28.4574 32.9567 28.2599 33.1328 28.098C33.3089 27.9332 33.5192 27.8509 33.7635 27.8509C34.0107 27.8509 34.2209 27.9332 34.3942 28.098C34.5703 28.2599 34.6584 28.4574 34.6584 28.6903C34.6584 28.9205 34.5703 29.1179 34.3942 29.2827C34.2209 29.4446 34.0107 29.5256 33.7635 29.5256ZM37.6594 33.1648V37H36.1168V30.4545H37.5913V31.5668H37.668C37.8185 31.2003 38.0586 30.9091 38.3881 30.6932C38.7205 30.4773 39.131 30.3693 39.6197 30.3693C40.0714 30.3693 40.4648 30.4659 40.8001 30.6591C41.1381 30.8523 41.3995 31.1321 41.5842 31.4986C41.7717 31.8651 41.864 32.3097 41.8612 32.8324V37H40.3185V33.071C40.3185 32.6335 40.2049 32.2912 39.9776 32.044C39.7532 31.7969 39.4421 31.6733 39.0444 31.6733C38.7745 31.6733 38.5344 31.733 38.3242 31.8523C38.1168 31.9687 37.9535 32.1378 37.8342 32.3594C37.7177 32.581 37.6594 32.8494 37.6594 33.1648ZM46.3271 37.1278C45.6708 37.1278 45.104 36.9915 44.6268 36.7188C44.1523 36.4432 43.7873 36.054 43.5316 35.5511C43.2759 35.0455 43.1481 34.4503 43.1481 33.7656C43.1481 33.0923 43.2759 32.5014 43.5316 31.9929C43.7901 31.4815 44.1509 31.0838 44.614 30.7997C45.0771 30.5128 45.6211 30.3693 46.2461 30.3693C46.6495 30.3693 47.0302 30.4347 47.3881 30.5653C47.7489 30.6932 48.0671 30.892 48.3427 31.1619C48.6211 31.4318 48.8398 31.7756 48.9989 32.1932C49.158 32.608 49.2376 33.1023 49.2376 33.6761V34.1491H43.8725V33.1094H47.7589C47.756 32.8139 47.6921 32.5511 47.5671 32.321C47.4421 32.0881 47.2674 31.9048 47.043 31.7713C46.8214 31.6378 46.5629 31.571 46.2674 31.571C45.9521 31.571 45.6751 31.6477 45.4364 31.8011C45.1978 31.9517 45.0117 32.1506 44.8782 32.3977C44.7475 32.642 44.6808 32.9105 44.6779 33.2031V34.1108C44.6779 34.4915 44.7475 34.8182 44.8867 35.0909C45.0259 35.3608 45.2205 35.5682 45.4705 35.7131C45.7205 35.8551 46.0131 35.9261 46.3484 35.9261C46.5728 35.9261 46.7759 35.8949 46.9577 35.8324C47.1396 35.767 47.2972 35.6719 47.4308 35.5469C47.5643 35.4219 47.6651 35.267 47.7333 35.0824L49.1737 35.2443C49.0827 35.625 48.9094 35.9574 48.6538 36.2415C48.4009 36.5227 48.0771 36.7415 47.6822 36.8977C47.2873 37.0511 46.8356 37.1278 46.3271 37.1278ZM55.7159 32.1847L54.3097 32.3381C54.2699 32.196 54.2003 32.0625 54.1009 31.9375C54.0043 31.8125 53.8736 31.7116 53.7088 31.6349C53.544 31.5582 53.3423 31.5199 53.1037 31.5199C52.7827 31.5199 52.5128 31.5895 52.294 31.7287C52.0781 31.8679 51.9716 32.0483 51.9744 32.2699C51.9716 32.4602 52.0412 32.6151 52.1832 32.7344C52.3281 32.8537 52.5668 32.9517 52.8991 33.0284L54.0156 33.267C54.6349 33.4006 55.0952 33.6122 55.3963 33.902C55.7003 34.1918 55.8537 34.571 55.8565 35.0398C55.8537 35.4517 55.733 35.8153 55.4943 36.1307C55.2585 36.4432 54.9304 36.6875 54.5099 36.8636C54.0895 37.0398 53.6065 37.1278 53.0611 37.1278C52.2599 37.1278 51.6151 36.9602 51.1264 36.625C50.6378 36.2869 50.3466 35.8168 50.2528 35.2145L51.7571 35.0696C51.8253 35.3651 51.9702 35.5881 52.1918 35.7386C52.4134 35.8892 52.7017 35.9645 53.0568 35.9645C53.4233 35.9645 53.7173 35.8892 53.9389 35.7386C54.1634 35.5881 54.2756 35.402 54.2756 35.1804C54.2756 34.9929 54.2031 34.8381 54.0582 34.7159C53.9162 34.5937 53.6946 34.5 53.3935 34.4347L52.277 34.2003C51.6491 34.0696 51.1847 33.8494 50.8835 33.5398C50.5824 33.2273 50.4332 32.8324 50.4361 32.3551C50.4332 31.9517 50.5426 31.6023 50.7642 31.3068C50.9886 31.0085 51.2997 30.7784 51.6974 30.6165C52.098 30.4517 52.5597 30.3693 53.0824 30.3693C53.8494 30.3693 54.4531 30.5327 54.8935 30.8594C55.3366 31.1861 55.6108 31.6278 55.7159 32.1847ZM62.3018 32.1847L60.8956 32.3381C60.8558 32.196 60.7862 32.0625 60.6868 31.9375C60.5902 31.8125 60.4595 31.7116 60.2947 31.6349C60.13 31.5582 59.9283 31.5199 59.6896 31.5199C59.3686 31.5199 59.0987 31.5895 58.88 31.7287C58.6641 31.8679 58.5575 32.0483 58.5604 32.2699C58.5575 32.4602 58.6271 32.6151 58.7692 32.7344C58.9141 32.8537 59.1527 32.9517 59.4851 33.0284L60.6016 33.267C61.2209 33.4006 61.6811 33.6122 61.9822 33.902C62.2862 34.1918 62.4396 34.571 62.4425 35.0398C62.4396 35.4517 62.3189 35.8153 62.0803 36.1307C61.8445 36.4432 61.5163 36.6875 61.0959 36.8636C60.6754 37.0398 60.1925 37.1278 59.647 37.1278C58.8459 37.1278 58.201 36.9602 57.7124 36.625C57.2237 36.2869 56.9325 35.8168 56.8388 35.2145L58.343 35.0696C58.4112 35.3651 58.5561 35.5881 58.7777 35.7386C58.9993 35.8892 59.2876 35.9645 59.6428 35.9645C60.0092 35.9645 60.3033 35.8892 60.5249 35.7386C60.7493 35.5881 60.8615 35.402 60.8615 35.1804C60.8615 34.9929 60.7891 34.8381 60.6442 34.7159C60.5021 34.5937 60.2805 34.5 59.9794 34.4347L58.8629 34.2003C58.2351 34.0696 57.7706 33.8494 57.4695 33.5398C57.1683 33.2273 57.0192 32.8324 57.022 32.3551C57.0192 31.9517 57.1286 31.6023 57.3501 31.3068C57.5746 31.0085 57.8857 30.7784 58.2834 30.6165C58.6839 30.4517 59.1456 30.3693 59.6683 30.3693C60.4354 30.3693 61.0391 30.5327 61.4794 30.8594C61.9226 31.1861 62.1967 31.6278 62.3018 32.1847ZM66.7592 37V28.2727H72.3501V29.598H68.3402V31.9673H71.9666V33.2926H68.3402V37H66.7592ZM76.0969 37.1278C75.4577 37.1278 74.9038 36.9872 74.435 36.706C73.9663 36.4247 73.6026 36.0312 73.3441 35.5256C73.0884 35.0199 72.9606 34.429 72.9606 33.7528C72.9606 33.0767 73.0884 32.4844 73.3441 31.9759C73.6026 31.4673 73.9663 31.0724 74.435 30.7912C74.9038 30.5099 75.4577 30.3693 76.0969 30.3693C76.7362 30.3693 77.2901 30.5099 77.7589 30.7912C78.2276 31.0724 78.5898 31.4673 78.8455 31.9759C79.104 32.4844 79.2333 33.0767 79.2333 33.7528C79.2333 34.429 79.104 35.0199 78.8455 35.5256C78.5898 36.0312 78.2276 36.4247 77.7589 36.706C77.2901 36.9872 76.7362 37.1278 76.0969 37.1278ZM76.1055 35.892C76.4521 35.892 76.7418 35.7969 76.9748 35.6065C77.2077 35.4134 77.381 35.1548 77.4947 34.831C77.6112 34.5071 77.6694 34.1463 77.6694 33.7486C77.6694 33.348 77.6112 32.9858 77.4947 32.6619C77.381 32.3352 77.2077 32.0753 76.9748 31.8821C76.7418 31.6889 76.4521 31.5923 76.1055 31.5923C75.7504 31.5923 75.4549 31.6889 75.2191 31.8821C74.9862 32.0753 74.8114 32.3352 74.695 32.6619C74.5813 32.9858 74.5245 33.348 74.5245 33.7486C74.5245 34.1463 74.5813 34.5071 74.695 34.831C74.8114 35.1548 74.9862 35.4134 75.2191 35.6065C75.4549 35.7969 75.7504 35.892 76.1055 35.892ZM80.5426 37V30.4545H82.0384V31.5455H82.1065C82.2259 31.1676 82.4304 30.8764 82.7202 30.6719C83.0128 30.4645 83.3466 30.3608 83.7216 30.3608C83.8068 30.3608 83.902 30.3651 84.0071 30.3736C84.1151 30.3793 84.2045 30.3892 84.2756 30.4034V31.8224C84.2102 31.7997 84.1065 31.7798 83.9645 31.7628C83.8253 31.7429 83.6903 31.733 83.5597 31.733C83.2784 31.733 83.0256 31.794 82.8011 31.9162C82.5795 32.0355 82.4048 32.2017 82.277 32.4148C82.1491 32.6278 82.0852 32.8736 82.0852 33.152V37H80.5426ZM89.4723 34.2472V30.4545H91.0149V37H89.5192V35.8366H89.451C89.3033 36.2031 89.0604 36.5028 88.7223 36.7358C88.3871 36.9687 87.9737 37.0852 87.4822 37.0852C87.0533 37.0852 86.674 36.9901 86.3445 36.7997C86.0178 36.6065 85.7621 36.3267 85.5774 35.9602C85.3928 35.5909 85.3004 35.1449 85.3004 34.6222V30.4545H86.843V34.3835C86.843 34.7983 86.9567 35.1278 87.1839 35.3722C87.4112 35.6165 87.7095 35.7386 88.0788 35.7386C88.3061 35.7386 88.5263 35.6832 88.7393 35.5724C88.9524 35.4616 89.1271 35.2969 89.2635 35.0781C89.4027 34.8565 89.4723 34.5795 89.4723 34.2472ZM92.6012 37V30.4545H94.0756V31.5668H94.1523C94.2887 31.1918 94.5146 30.8991 94.8299 30.6889C95.1452 30.4759 95.5217 30.3693 95.9592 30.3693C96.4023 30.3693 96.7759 30.4773 97.0799 30.6932C97.3867 30.9062 97.6026 31.1974 97.7276 31.5668H97.7958C97.9407 31.2031 98.185 30.9134 98.5288 30.6974C98.8754 30.4787 99.2859 30.3693 99.7603 30.3693C100.363 30.3693 100.854 30.5597 101.235 30.9403C101.615 31.321 101.806 31.8764 101.806 32.6065V37H100.259V32.8452C100.259 32.4389 100.151 32.142 99.935 31.9545C99.7191 31.7642 99.4549 31.669 99.1424 31.669C98.7702 31.669 98.479 31.7855 98.2688 32.0185C98.0614 32.2486 97.9577 32.5483 97.9577 32.9176V37H96.445V32.7812C96.445 32.4432 96.3427 32.1733 96.1381 31.9716C95.9364 31.7699 95.6722 31.669 95.3455 31.669C95.1239 31.669 94.9222 31.7259 94.7404 31.8395C94.5586 31.9503 94.4137 32.108 94.3058 32.3125C94.1978 32.5142 94.1438 32.75 94.1438 33.0199V37H92.6012Z" fill="white"/>
</svg>
